<svg width="24" height="24" viewBox="0 0 24 24" fill="none" xmlns="http://www.w3.org/2000/svg">
<mask id="mask0_41_164" style="mask-type:alpha" maskUnits="userSpaceOnUse" x="0" y="0" width="24" height="24">
<rect width="24" height="24" fill="#C4C4C4"/>
</mask>
<g mask="url(#mask0_41_164)">
<path d="M19.5748 21.525L13.1748 15.15C12.6748 15.5 12.1041 15.7833 11.4628 16C10.8208 16.2167 10.1248 16.325 9.3748 16.325C7.4748 16.325 5.86247 15.6623 4.5378 14.337C3.21247 13.0123 2.5498 11.4 2.5498 9.5C2.5498 7.6 3.21247 5.98734 4.5378 4.662C5.86247 3.33734 7.4748 2.675 9.3748 2.675C11.2915 2.675 12.9081 3.33734 14.2248 4.662C15.5415 5.98734 16.1998 7.6 16.1998 9.5C16.1998 10.25 16.0955 10.9417 15.8868 11.575C15.6788 12.2083 15.3915 12.7667 15.0248 13.25L21.4498 19.675L19.5748 21.525ZM9.3748 13.675C10.5415 13.675 11.5291 13.2707 12.3378 12.462C13.1458 11.654 13.5498 10.6667 13.5498 9.5C13.5498 8.33334 13.1458 7.34567 12.3378 6.537C11.5291 5.729 10.5415 5.325 9.3748 5.325C8.2248 5.325 7.24147 5.729 6.4248 6.537C5.60814 7.34567 5.1998 8.33334 5.1998 9.5C5.1998 10.6667 5.60814 11.654 6.4248 12.462C7.24147 13.2707 8.2248 13.675 9.3748 13.675Z" fill="#DCEAED"/>
</g>
</svg>
